<svg width="30" height="30" viewBox="0 0 30 30" fill="none" xmlns="http://www.w3.org/2000/svg">
<path d="M7.42433 22.2737L10.4017 19.2963M22.2736 7.42445L19.2208 10.4772M24.1203 10.5526L19.2208 10.4772M19.2208 10.4772L19.1454 5.57772M19.2208 10.4772L10.4017 19.2963M10.4017 19.2963L5.46453 19.334M10.4017 19.2963L10.364 24.2335" stroke="#876E66" stroke-width="2" stroke-linecap="round"/>
<path d="M7.42455 7.42457L10.4019 10.402M22.2738 22.2738L19.221 19.221M19.1457 24.1205L19.221 19.221M19.221 19.221L24.1205 19.1457M19.221 19.221L10.4019 10.402M10.4019 10.402L10.3643 5.46477M10.4019 10.402L5.46475 10.3643" stroke="#876E66" stroke-width="2" stroke-linecap="round"/>
<path d="M22.2737 14.8492H7.4245" stroke="#876E66" stroke-width="2" stroke-linecap="round"/>
<path d="M14.8493 7.4245V22.2737" stroke="#876E66" stroke-width="2" stroke-linecap="round"/>
</svg>
