<svg width="14" height="14" viewBox="0 0 14 14" fill="none" xmlns="http://www.w3.org/2000/svg">
<path d="M6.9999 13V10.5939M6.9999 1V3.46701M9.01005 1.51777L6.9999 3.46701M6.9999 3.46701L4.98975 1.51777M6.9999 3.46701V10.5939M6.9999 10.5939L5.0202 12.6041M6.9999 10.5939L8.97959 12.6041" stroke="#876E66" stroke-linecap="round"/>
<path d="M1 6.9999L3.40609 6.9999M13 6.9999L10.533 6.9999M12.4822 9.01005L10.533 6.9999M10.533 6.9999L12.4822 4.98975M10.533 6.9999L3.40609 6.9999M3.40609 6.9999L1.39594 5.0202M3.40609 6.9999L1.39594 8.97959" stroke="#876E66" stroke-linecap="round"/>
<path d="M10 4L4 10" stroke="#876E66" stroke-linecap="round"/>
<path d="M4 4L10 10" stroke="#876E66" stroke-linecap="round"/>
</svg>
