<svg width="172" height="173" viewBox="0 0 172 173" fill="none" xmlns="http://www.w3.org/2000/svg">
<path d="M87.261 13.9723L87.9144 3.30138L94.3127 3.69316L94.2426 4.83945L89.1364 4.52679L88.9156 8.1324L93.5424 8.41571L93.4722 9.562L88.8454 9.27869L88.5531 14.0514L87.261 13.9723Z" fill="#FF8E8E"/>
<path d="M95.8925 14.7141L97.068 6.7825L98.2867 6.96311L97.1112 14.8947L95.8925 14.7141ZM97.8836 5.55241C97.646 5.51721 97.4532 5.40596 97.3051 5.21865C97.1604 5.03185 97.1048 4.82485 97.1385 4.59764C97.1722 4.37044 97.2853 4.18843 97.478 4.05164C97.6741 3.91535 97.8909 3.86481 98.1285 3.90001C98.366 3.93521 98.5571 4.04621 98.7018 4.23301C98.85 4.42032 98.9072 4.62758 98.8735 4.85478C98.8399 5.08199 98.725 5.26373 98.5289 5.40002C98.3362 5.53682 98.1211 5.58762 97.8836 5.55241Z" fill="#FF8E8E"/>
<path d="M101.96 19.084C101.382 18.9449 100.902 18.751 100.522 18.502C100.141 18.2565 99.8401 17.9803 99.6203 17.6734C99.4032 17.3706 99.2459 17.0644 99.1485 16.7547L100.264 16.314C100.338 16.4821 100.436 16.6775 100.558 16.9001C100.679 17.126 100.867 17.3412 101.122 17.5457C101.38 17.7544 101.744 17.9152 102.214 18.0282C102.843 18.1795 103.399 18.1521 103.882 17.9459C104.365 17.7398 104.684 17.3118 104.84 16.6622L105.221 15.0786L105.119 15.0542C104.997 15.1751 104.83 15.321 104.617 15.4918C104.408 15.66 104.134 15.7891 103.794 15.8791C103.458 15.9666 103.036 15.9494 102.528 15.8274C101.899 15.6761 101.37 15.3914 100.94 14.9733C100.514 14.556 100.224 14.0282 100.07 13.3897C99.9189 12.7522 99.941 12.0273 100.136 11.2152C100.328 10.4166 100.636 9.755 101.059 9.23034C101.483 8.70229 101.984 8.33601 102.563 8.13152C103.143 7.92364 103.761 7.89858 104.417 8.05634C104.925 8.17832 105.307 8.35968 105.564 8.60043C105.826 8.8386 106.01 9.08339 106.118 9.33479C106.23 9.58361 106.314 9.78627 106.369 9.94277L106.491 9.97204L106.789 8.73358L107.946 9.01168L106.019 17.0312C105.858 17.7012 105.574 18.2094 105.169 18.5558C104.766 18.9064 104.286 19.1185 103.728 19.1919C103.172 19.2696 102.583 19.2336 101.96 19.084ZM102.949 14.7904C103.43 14.9058 103.862 14.8934 104.247 14.7532C104.631 14.6129 104.959 14.3571 105.231 13.9858C105.503 13.6144 105.708 13.1411 105.846 12.5659C105.981 12.0042 106.016 11.4881 105.95 11.0177C105.884 10.5473 105.714 10.1505 105.441 9.82716C105.168 9.50384 104.788 9.28363 104.301 9.16653C103.793 9.04456 103.339 9.07149 102.939 9.24734C102.542 9.42401 102.207 9.70857 101.934 10.101C101.664 10.4943 101.466 10.9549 101.339 11.4828C101.209 12.0242 101.178 12.5233 101.247 12.9802C101.321 13.4344 101.497 13.8203 101.775 14.1376C102.057 14.4524 102.448 14.67 102.949 14.7904Z" fill="#FF8E8E"/>
<path d="M108.582 17.4596L111.639 10.0471L112.74 10.5009L112.262 11.6591L112.359 11.6989C112.676 11.3669 113.052 11.1625 113.487 11.0857C113.922 11.0057 114.382 11.0652 114.864 11.2642C115.353 11.4659 115.714 11.7448 115.948 12.1008C116.186 12.4549 116.315 12.8676 116.335 13.339L116.412 13.3708C116.76 13.0663 117.17 12.8797 117.643 12.811C118.116 12.7392 118.619 12.8127 119.15 13.0317C119.812 13.305 120.269 13.7361 120.519 14.3249C120.771 14.9106 120.717 15.6393 120.357 16.5112L118.311 21.4721L117.172 21.0024L119.218 16.0415C119.444 15.4945 119.455 15.0419 119.253 14.6837C119.051 14.3254 118.747 14.0627 118.342 13.8955C117.82 13.6805 117.352 13.6717 116.935 13.8689C116.52 14.0628 116.214 14.3995 116.016 14.8789L114.026 19.7047L112.868 19.227L114.961 14.1503C115.135 13.7288 115.138 13.333 114.971 12.9628C114.805 12.5894 114.507 12.3138 114.076 12.136C113.78 12.014 113.47 11.9787 113.148 12.0302C112.829 12.083 112.533 12.2168 112.26 12.4317C111.991 12.6447 111.782 12.933 111.632 13.2965L109.721 17.9293L108.582 17.4596Z" fill="#FF8E8E"/>
<path d="M122.528 24.1866C122.093 23.9249 121.747 23.6054 121.49 23.2281C121.236 22.8478 121.098 22.4383 121.077 21.9996C121.058 21.5579 121.183 21.1133 121.452 20.6659C121.689 20.2721 121.958 19.9995 122.26 19.848C122.564 19.6936 122.888 19.6242 123.232 19.6399C123.575 19.6556 123.924 19.7233 124.279 19.8428C124.638 19.9612 124.99 20.0954 125.334 20.2454C125.784 20.4426 126.147 20.6057 126.423 20.7347C126.703 20.8626 126.923 20.9281 127.084 20.9312C127.248 20.936 127.38 20.8534 127.483 20.6834L127.504 20.6476C127.769 20.2061 127.855 19.7904 127.76 19.4006C127.668 19.0126 127.379 18.6726 126.893 18.3805C126.389 18.0776 125.927 17.9505 125.508 17.9993C125.089 18.048 124.746 18.1627 124.479 18.3434L123.692 17.3833C124.122 17.0731 124.556 16.8913 124.994 16.8378C125.437 16.7832 125.864 16.8162 126.274 16.937C126.689 17.0566 127.07 17.2203 127.416 17.4282C127.637 17.5608 127.874 17.74 128.129 17.9657C128.387 18.1903 128.603 18.4638 128.774 18.7861C128.949 19.1103 129.028 19.4887 129.012 19.9214C128.996 20.3541 128.824 20.8434 128.496 21.3894L125.775 25.9179L124.719 25.2835L125.278 24.3527L125.225 24.3205C125.063 24.4266 124.848 24.5146 124.579 24.5842C124.31 24.6539 124.001 24.6651 123.651 24.6178C123.302 24.5704 122.928 24.4267 122.528 24.1866ZM123.259 23.3347C123.677 23.5856 124.078 23.715 124.463 23.723C124.851 23.7327 125.196 23.6517 125.498 23.48C125.803 23.3101 126.042 23.0819 126.214 22.7955L126.794 21.8289C126.717 21.8558 126.589 21.8458 126.41 21.7992C126.236 21.7514 126.041 21.6847 125.824 21.5992C125.612 21.5126 125.407 21.4256 125.207 21.3384C125.013 21.25 124.854 21.1792 124.732 21.126C124.436 20.9969 124.145 20.9009 123.858 20.8381C123.575 20.7741 123.314 20.7773 123.072 20.8476C122.836 20.9167 122.637 21.0855 122.476 21.354C122.255 21.7209 122.225 22.0799 122.383 22.4309C122.546 22.7807 122.838 23.082 123.259 23.3347Z" fill="#FF8E8E"/>
<path d="M138.792 22.2499L135.17 31.0785L135.263 31.1619L143.622 26.5588L144.635 27.4623L134.589 32.8271L133.592 31.9375L137.779 21.3464L138.792 22.2499Z" fill="#FFB265"/>
<path d="M138.733 36.8908L144.619 31.4465L145.456 32.3509L139.569 37.7952L138.733 36.8908ZM146.026 30.999C145.863 30.8227 145.782 30.6152 145.784 30.3764C145.788 30.1401 145.875 29.944 146.043 29.788C146.212 29.6321 146.414 29.5612 146.65 29.5753C146.888 29.592 147.089 29.6885 147.252 29.8648C147.415 30.0411 147.494 30.2473 147.49 30.4836C147.488 30.7224 147.403 30.9198 147.234 31.0757C147.066 31.2317 146.862 31.3013 146.624 31.2846C146.388 31.2705 146.189 31.1753 146.026 30.999Z" fill="#FFB265"/>
<path d="M149.643 40.2322L148.712 39.5565C148.814 39.3877 148.891 39.1962 148.944 38.9819C149.001 38.7682 149.004 38.5356 148.952 38.2841C148.901 38.0326 148.764 37.766 148.542 37.4844C148.238 37.0988 147.897 36.8475 147.516 36.7305C147.141 36.614 146.818 36.6623 146.548 36.8754C146.307 37.0649 146.186 37.302 146.184 37.5868C146.183 37.8716 146.282 38.2365 146.482 38.6816L146.988 39.7975C147.295 40.4684 147.416 41.0528 147.352 41.5508C147.291 42.0465 147.04 42.4677 146.6 42.8143C146.239 43.0985 145.834 43.2487 145.386 43.2648C144.94 43.2836 144.49 43.1731 144.035 42.9331C143.581 42.6932 143.161 42.3285 142.775 41.8391C142.269 41.1965 141.99 40.5549 141.937 39.9142C141.885 39.2736 142.082 38.6862 142.53 38.1521L143.483 38.89C143.213 39.2444 143.089 39.6101 143.111 39.9869C143.135 40.3665 143.303 40.7545 143.615 41.1509C143.971 41.6021 144.348 41.8849 144.749 41.9994C145.154 42.1145 145.492 42.0655 145.762 41.8524C145.981 41.6801 146.104 41.4593 146.131 41.1899C146.161 40.9184 146.088 40.595 145.912 40.2197L145.331 38.976C145.014 38.2914 144.892 37.7008 144.966 37.204C145.045 36.7078 145.302 36.2886 145.736 35.9463C146.092 35.6664 146.485 35.5186 146.915 35.5029C147.348 35.4899 147.779 35.5957 148.208 35.8203C148.64 36.0475 149.03 36.3826 149.379 36.8256C149.87 37.449 150.118 38.046 150.125 38.6168C150.133 39.1903 149.973 39.7287 149.643 40.2322Z" fill="#FFB265"/>
<path d="M151.516 48.5342L155.554 46.0512L156.199 47.1006L149.369 51.3009L148.723 50.2515L149.88 49.5405L149.836 49.4693C149.391 49.5226 148.942 49.4549 148.492 49.2665C148.044 49.0762 147.661 48.7232 147.344 48.2073C147.081 47.7805 146.941 47.3436 146.924 46.8967C146.91 46.448 147.034 46.0122 147.296 45.5891C147.562 45.1642 147.986 44.7731 148.567 44.4158L152.907 41.7469L153.552 42.7963L149.283 45.4214C148.785 45.7277 148.474 46.1113 148.348 46.5723C148.225 47.0362 148.298 47.486 148.566 47.9218C148.726 48.1827 148.956 48.407 149.255 48.5947C149.556 48.7854 149.901 48.8879 150.29 48.9021C150.68 48.9193 151.089 48.7967 151.516 48.5342Z" fill="#FFB265"/>
<path d="M151.425 55.8471C151.212 55.3856 151.107 54.9267 151.107 54.4705C151.111 54.0128 151.228 53.5969 151.458 53.2228C151.691 52.8473 152.045 52.5503 152.519 52.3321C152.937 52.14 153.313 52.0664 153.648 52.1115C153.986 52.1551 154.292 52.2802 154.567 52.4868C154.843 52.6935 155.093 52.946 155.318 53.2445C155.549 53.5446 155.764 53.8536 155.964 54.1715C156.224 54.5879 156.432 54.9271 156.587 55.189C156.747 55.4526 156.892 55.6309 157.023 55.7239C157.155 55.82 157.312 55.8266 157.492 55.7437L157.53 55.7262C157.998 55.5108 158.302 55.2155 158.444 54.8401C158.586 54.4678 158.539 54.0241 158.302 53.5088C158.056 52.9745 157.746 52.6095 157.373 52.4137C156.999 52.218 156.651 52.1195 156.329 52.1185L156.219 50.8817C156.749 50.8676 157.21 50.9619 157.602 51.1645C157.999 51.3688 158.333 51.6365 158.604 51.9676C158.88 52.3004 159.102 52.6501 159.271 53.0168C159.379 53.2507 159.474 53.5325 159.557 53.8622C159.644 54.1936 159.668 54.5408 159.628 54.9039C159.59 55.2702 159.442 55.6275 159.185 55.9758C158.928 56.3241 158.51 56.6314 157.931 56.8977L153.132 59.1068L152.617 57.9877L153.604 57.5337L153.577 57.4768C153.384 57.4737 153.157 57.4251 152.895 57.331C152.634 57.2369 152.372 57.072 152.11 56.8362C151.848 56.6004 151.62 56.2707 151.425 55.8471ZM152.509 55.555C152.713 55.9976 152.971 56.3306 153.285 56.5541C153.6 56.7807 153.93 56.9081 154.277 56.9364C154.625 56.9679 154.95 56.9137 155.254 56.774L156.278 56.3025C156.199 56.2813 156.099 56.201 155.977 56.0616C155.86 55.9239 155.736 55.7587 155.606 55.5661C155.479 55.3752 155.359 55.1875 155.243 55.0032C155.132 54.8205 155.041 54.6728 154.97 54.5599C154.798 54.2866 154.611 54.0431 154.41 53.8295C154.213 53.6176 153.995 53.4727 153.756 53.395C153.521 53.3189 153.262 53.3464 152.978 53.4773C152.589 53.6563 152.361 53.9355 152.294 54.3149C152.232 54.6959 152.304 55.1093 152.509 55.555Z" fill="#FFB265"/>
<path d="M164.409 58.8455L154.358 62.4886L153.938 61.3304L163.989 57.6873L164.409 58.8455Z" fill="#FFB265"/>
<path d="M165.432 73.2798C165.939 73.1152 166.292 72.786 166.492 72.2921C166.692 71.7981 166.728 71.2338 166.602 70.5989C166.51 70.1347 166.354 69.7434 166.135 69.4251C165.916 69.1102 165.656 68.8817 165.354 68.7394C165.053 68.6005 164.736 68.5643 164.401 68.6308C164.121 68.6864 163.894 68.8009 163.719 68.974C163.548 69.1499 163.417 69.3569 163.326 69.595C163.239 69.8324 163.175 70.0757 163.136 70.3247C163.1 70.5731 163.076 70.7997 163.064 71.0044L162.989 72.1264C162.971 72.4137 162.933 72.7372 162.873 73.0968C162.814 73.4598 162.705 73.8166 162.548 74.1673C162.395 74.5206 162.169 74.8316 161.871 75.1002C161.574 75.3687 161.179 75.5519 160.687 75.6496C160.121 75.7623 159.579 75.7156 159.063 75.5096C158.547 75.307 158.098 74.9492 157.716 74.4362C157.334 73.9266 157.063 73.2691 156.903 72.4635C156.754 71.7126 156.746 71.0383 156.879 70.4406C157.012 69.8462 157.265 69.349 157.636 68.9488C158.008 68.552 158.476 68.2761 159.041 68.1211L159.302 69.4318C158.913 69.5447 158.612 69.7429 158.398 70.0266C158.189 70.313 158.057 70.648 158.002 71.0315C157.951 71.4177 157.967 71.8191 158.05 72.2355C158.146 72.7202 158.311 73.1398 158.545 73.4943C158.782 73.8481 159.065 74.1094 159.393 74.2784C159.724 74.4467 160.081 74.4928 160.463 74.4168C160.812 74.3475 161.076 74.1939 161.255 73.9559C161.435 73.7179 161.562 73.4267 161.635 73.0821C161.709 72.7375 161.76 72.3707 161.789 71.9817L161.901 70.6182C161.974 69.7522 162.181 69.0368 162.523 68.4721C162.865 67.9073 163.389 67.5547 164.095 67.4142C164.683 67.2975 165.226 67.3544 165.726 67.585C166.23 67.8183 166.657 68.1805 167.007 68.6716C167.36 69.1654 167.604 69.7469 167.737 70.4159C167.871 71.0917 167.869 71.7165 167.731 72.2904C167.597 72.8635 167.352 73.3451 166.997 73.7351C166.642 74.1285 166.202 74.3863 165.676 74.5086L165.432 73.2798Z" fill="#FFEA48"/>
<path d="M166.344 81.0539L165.305 81.1545L164.905 77.0186L165.944 76.918L166.344 81.0539ZM167.973 77.9383L168.091 79.1646L160.485 79.901C160.138 79.9345 159.883 80.0099 159.72 80.1271C159.56 80.2475 159.459 80.3902 159.415 80.5552C159.375 80.7234 159.364 80.8975 159.382 81.0777C159.395 81.2128 159.413 81.3229 159.435 81.4082C159.461 81.4931 159.481 81.5611 159.496 81.612L158.419 81.968C158.38 81.8879 158.337 81.7749 158.292 81.629C158.243 81.4834 158.207 81.2963 158.185 81.0677C158.152 80.7213 158.193 80.3746 158.31 80.0276C158.427 79.6841 158.627 79.3885 158.911 79.1408C159.195 78.8965 159.569 78.7519 160.033 78.707L167.973 77.9383Z" fill="#FFEA48"/>
<path d="M161.773 88.4437L166.513 88.437L166.515 89.669L158.497 89.6803L158.495 88.4484L159.852 88.4464L159.852 88.3629C159.445 88.1756 159.098 87.8837 158.812 87.4874C158.529 87.0911 158.388 86.5901 158.387 85.9846C158.386 85.4834 158.495 85.0378 158.714 84.6478C158.936 84.2577 159.27 83.9509 159.715 83.7276C160.164 83.5042 160.729 83.3921 161.411 83.3911L166.506 83.3839L166.508 84.6158L161.496 84.6229C160.912 84.6238 160.445 84.788 160.098 85.1156C159.75 85.4467 159.577 85.8681 159.578 86.3796C159.578 86.6859 159.657 86.9972 159.814 87.3137C159.971 87.6337 160.212 87.9013 160.535 88.1166C160.859 88.3354 161.272 88.4444 161.773 88.4437Z" fill="#FFEA48"/>
<path d="M157.815 95.3711C157.897 94.708 158.137 94.1433 158.535 93.677C158.936 93.2112 159.462 92.873 160.112 92.6623C160.766 92.4521 161.514 92.3991 162.357 92.5034C163.193 92.6067 163.9 92.8398 164.48 93.2025C165.059 93.5652 165.485 94.0228 165.756 94.5754C166.028 95.128 166.123 95.7394 166.04 96.4094C165.976 96.9275 165.839 97.3261 165.629 97.6052C165.422 97.8882 165.2 98.0957 164.963 98.2276C164.729 98.3635 164.537 98.4677 164.388 98.5405L164.375 98.6441L168.291 99.1285L168.14 100.351L157.53 99.0389L157.676 97.8577L158.899 98.0089L158.917 97.8638C158.783 97.7561 158.616 97.6056 158.415 97.4125C158.218 97.2198 158.052 96.9591 157.917 96.6304C157.786 96.302 157.752 95.8823 157.815 95.3711ZM158.893 95.6728C158.833 96.1632 158.909 96.5935 159.123 96.9635C159.34 97.3341 159.666 97.6356 160.1 97.8681C160.537 98.1011 161.057 98.2547 161.658 98.329C162.252 98.4025 162.782 98.3805 163.249 98.2629C163.719 98.1457 164.1 97.9333 164.39 97.6256C164.684 97.3183 164.862 96.916 164.924 96.4186C164.988 95.9005 164.908 95.4524 164.685 95.0741C164.465 94.6997 164.139 94.3982 163.708 94.1695C163.28 93.9448 162.786 93.7978 162.227 93.7286C161.66 93.6585 161.135 93.6812 160.651 93.7967C160.17 93.916 159.771 94.1298 159.456 94.4379C159.144 94.75 158.956 95.1616 158.893 95.6728Z" fill="#FFEA48"/>
<path d="M157.015 101.389L164.855 103.069L164.596 104.274L156.756 102.594L157.015 101.389ZM166.03 103.962C166.08 103.727 166.204 103.542 166.4 103.406C166.596 103.274 166.806 103.231 167.031 103.28C167.255 103.328 167.43 103.452 167.554 103.653C167.677 103.858 167.714 104.077 167.663 104.312C167.613 104.547 167.49 104.731 167.294 104.863C167.098 104.999 166.888 105.043 166.663 104.995C166.438 104.946 166.264 104.82 166.141 104.616C166.017 104.415 165.98 104.197 166.03 103.962Z" fill="#FFEA48"/>
<path d="M155.113 108.13C155.327 107.438 155.679 106.882 156.169 106.462C156.659 106.045 157.245 105.781 157.927 105.671C158.608 105.565 159.344 105.634 160.136 105.878C160.934 106.125 161.586 106.484 162.092 106.958C162.596 107.434 162.933 107.982 163.102 108.603C163.27 109.226 163.248 109.884 163.034 110.576C162.82 111.267 162.469 111.822 161.979 112.239C161.489 112.659 160.902 112.922 160.217 113.028C159.531 113.136 158.79 113.068 157.992 112.821C157.2 112.577 156.554 112.217 156.052 111.741C155.55 111.269 155.214 110.721 155.047 110.098C154.878 109.477 154.9 108.821 155.113 108.13ZM156.171 108.456C156.009 108.982 156.01 109.456 156.174 109.878C156.339 110.3 156.616 110.661 157.004 110.959C157.393 111.258 157.843 111.486 158.355 111.644C158.867 111.802 159.37 111.868 159.862 111.842C160.355 111.815 160.79 111.675 161.167 111.42C161.544 111.165 161.814 110.775 161.977 110.249C162.139 109.724 162.136 109.249 161.968 108.826C161.8 108.403 161.52 108.041 161.128 107.742C160.736 107.442 160.284 107.213 159.772 107.055C159.26 106.897 158.759 106.832 158.27 106.859C157.781 106.887 157.349 107.028 156.975 107.284C156.601 107.54 156.333 107.931 156.171 108.456Z" fill="#FFEA48"/>
<path d="M154.054 128.797L154.671 127.659C155.035 127.769 155.387 127.807 155.726 127.773C156.063 127.742 156.381 127.653 156.678 127.505C156.977 127.362 157.247 127.17 157.489 126.929C157.731 126.688 157.936 126.412 158.105 126.099C158.413 125.53 158.549 124.937 158.512 124.319C158.473 123.704 158.247 123.109 157.835 122.533C157.421 121.96 156.807 121.453 155.993 121.012C155.179 120.571 154.419 120.334 153.714 120.299C153.006 120.268 152.384 120.404 151.848 120.707C151.31 121.014 150.887 121.451 150.578 122.02C150.409 122.332 150.289 122.655 150.219 122.989C150.149 123.323 150.134 123.654 150.175 123.981C150.217 124.312 150.317 124.628 150.475 124.927C150.635 125.232 150.859 125.505 151.147 125.748L150.53 126.886C150.096 126.54 149.75 126.151 149.494 125.719C149.237 125.287 149.067 124.831 148.983 124.35C148.902 123.871 148.907 123.384 148.996 122.891C149.084 122.4 149.256 121.917 149.513 121.443C149.948 120.642 150.53 120.035 151.26 119.623C151.99 119.211 152.813 119.022 153.729 119.055C154.645 119.088 155.599 119.374 156.59 119.911C157.581 120.448 158.341 121.091 158.869 121.841C159.397 122.59 159.688 123.383 159.741 124.219C159.795 125.056 159.604 125.875 159.17 126.676C158.913 127.151 158.603 127.559 158.239 127.9C157.875 128.245 157.468 128.513 157.019 128.705C156.574 128.899 156.1 129.007 155.598 129.028C155.099 129.05 154.584 128.973 154.054 128.797Z" fill="#A3FF52"/>
<path d="M144.271 129.639C144.7 129.056 145.215 128.646 145.816 128.41C146.415 128.177 147.055 128.121 147.736 128.241C148.414 128.364 149.087 128.671 149.754 129.162C150.427 129.657 150.925 130.211 151.247 130.824C151.567 131.44 151.705 132.068 151.661 132.71C151.615 133.354 151.378 133.968 150.949 134.551C150.52 135.134 150.006 135.542 149.406 135.775C148.805 136.011 148.164 136.067 147.483 135.941C146.799 135.819 146.121 135.51 145.449 135.015C144.781 134.525 144.289 133.972 143.971 133.359C143.652 132.748 143.515 132.12 143.561 131.476C143.606 130.834 143.842 130.222 144.271 129.639ZM145.162 130.295C144.837 130.738 144.682 131.186 144.699 131.639C144.716 132.092 144.858 132.523 145.127 132.932C145.396 133.342 145.747 133.706 146.179 134.023C146.61 134.341 147.063 134.568 147.537 134.705C148.011 134.842 148.468 134.852 148.908 134.735C149.348 134.618 149.731 134.338 150.057 133.895C150.383 133.452 150.536 133.003 150.517 132.548C150.497 132.093 150.351 131.66 150.08 131.248C149.808 130.837 149.456 130.472 149.024 130.154C148.593 129.837 148.141 129.611 147.67 129.476C147.199 129.341 146.745 129.333 146.307 129.452C145.87 129.571 145.488 129.852 145.162 130.295Z" fill="#A3FF52"/>
<path d="M138.654 136.388C139.114 135.903 139.642 135.591 140.239 135.453C140.839 135.316 141.463 135.356 142.111 135.573C142.762 135.793 143.395 136.194 144.011 136.779C144.622 137.359 145.053 137.966 145.303 138.602C145.554 139.238 145.624 139.859 145.515 140.465C145.405 141.071 145.118 141.619 144.653 142.109C144.294 142.487 143.947 142.727 143.612 142.827C143.278 142.931 142.976 142.966 142.707 142.932C142.437 142.902 142.221 142.872 142.058 142.842L141.986 142.917L144.849 145.634L144.001 146.527L136.246 139.169L137.065 138.305L137.959 139.153L138.059 139.047C138.015 138.881 137.97 138.661 137.924 138.386C137.88 138.114 137.901 137.806 137.988 137.461C138.077 137.119 138.299 136.761 138.654 136.388ZM139.342 137.271C139.002 137.629 138.808 138.021 138.76 138.445C138.714 138.872 138.797 139.308 139.008 139.753C139.222 140.201 139.548 140.633 139.987 141.05C140.422 141.462 140.862 141.759 141.307 141.942C141.755 142.127 142.187 142.182 142.604 142.107C143.023 142.035 143.405 141.817 143.75 141.453C144.109 141.074 144.311 140.667 144.356 140.23C144.402 139.798 144.319 139.362 144.108 138.922C143.897 138.487 143.587 138.075 143.178 137.687C142.764 137.294 142.328 137 141.87 136.806C141.412 136.616 140.965 136.551 140.528 136.612C140.092 136.677 139.696 136.897 139.342 137.271Z" fill="#A3FF52"/>
<path d="M131.694 142.885C132.29 142.394 132.913 142.102 133.563 142.01C134.211 141.922 134.848 142.02 135.474 142.303C136.098 142.591 136.672 143.052 137.194 143.686C137.715 144.321 138.06 144.975 138.227 145.648C138.393 146.327 138.38 146.974 138.187 147.588C137.993 148.207 137.617 148.746 137.058 149.206C136.736 149.472 136.373 149.68 135.97 149.831C135.567 149.983 135.137 150.043 134.68 150.014C134.225 149.987 133.759 149.839 133.281 149.57C132.802 149.301 132.326 148.878 131.85 148.3L131.518 147.897L136.291 143.97L136.968 144.792L133.162 147.923C133.45 148.273 133.776 148.527 134.142 148.686C134.504 148.847 134.878 148.902 135.264 148.851C135.647 148.801 136.011 148.635 136.355 148.352C136.734 148.04 136.984 147.676 137.106 147.26C137.228 146.849 137.239 146.434 137.142 146.014C137.044 145.594 136.855 145.214 136.574 144.872L136.123 144.324C135.738 143.857 135.331 143.527 134.902 143.334C134.473 143.147 134.044 143.088 133.614 143.157C133.187 143.229 132.781 143.424 132.397 143.74C132.147 143.945 131.95 144.166 131.806 144.402C131.661 144.642 131.574 144.895 131.543 145.159C131.515 145.426 131.549 145.7 131.645 145.981L130.514 146.479C130.354 146.088 130.291 145.68 130.325 145.256C130.361 144.834 130.493 144.419 130.72 144.011C130.95 143.605 131.274 143.23 131.694 142.885Z" fill="#A3FF52"/>
<path d="M123.836 148.759L129.047 158.094L123.449 161.218L122.89 160.216L127.357 157.722L125.596 154.568L121.548 156.827L120.989 155.824L125.036 153.565L122.706 149.39L123.836 148.759Z" fill="#5AFFEC"/>
<path d="M116.152 152.8L119.438 160.114L118.315 160.619L115.029 153.305L116.152 152.8ZM119.415 161.59C119.634 161.491 119.856 161.481 120.082 161.559C120.304 161.638 120.463 161.783 120.557 161.992C120.651 162.202 120.654 162.416 120.565 162.635C120.474 162.856 120.318 163.015 120.099 163.114C119.88 163.212 119.659 163.222 119.437 163.142C119.211 163.064 119.051 162.921 118.957 162.711C118.863 162.502 118.862 162.287 118.953 162.066C119.042 161.847 119.196 161.688 119.415 161.59Z" fill="#5AFFEC"/>
<path d="M112.384 162.986L112.013 162.01L115.898 160.534L116.268 161.51L112.384 162.986ZM115.818 163.736L114.666 164.174L111.953 157.029C111.829 156.704 111.69 156.478 111.533 156.351C111.375 156.229 111.211 156.168 111.04 156.17C110.868 156.176 110.697 156.211 110.527 156.275C110.401 156.323 110.299 156.369 110.223 156.413C110.147 156.46 110.087 156.498 110.042 156.526L109.415 155.581C109.482 155.522 109.58 155.451 109.709 155.369C109.836 155.283 110.007 155.2 110.222 155.118C110.547 154.994 110.893 154.943 111.258 154.965C111.62 154.987 111.958 155.103 112.272 155.311C112.582 155.521 112.82 155.843 112.986 156.279L115.818 163.736Z" fill="#5AFFEC"/>
<path d="M103.848 157.285L105.89 167.779L104.619 168.026L103.71 163.353L98.1144 164.442L99.0239 169.115L97.7531 169.362L95.7109 158.868L96.9817 158.621L97.8951 163.314L103.491 162.225L102.577 157.532L103.848 157.285Z" fill="#3EC5FF"/>
<path d="M88.176 162.684L88.435 167.417L87.2049 167.484L86.7668 159.478L87.9969 159.411L88.0711 160.766L88.1545 160.761C88.3199 160.345 88.5928 159.983 88.9734 159.676C89.3541 159.373 89.8468 159.205 90.4514 159.172C90.9518 159.145 91.4026 159.23 91.8038 159.427C92.2051 159.628 92.5292 159.945 92.7759 160.378C93.0228 160.814 93.1649 161.373 93.2022 162.054L93.4806 167.141L92.2505 167.208L91.9766 162.204C91.9447 161.621 91.7559 161.164 91.4102 160.834C91.0611 160.505 90.6311 160.354 90.1203 160.382C89.8145 160.399 89.5078 160.494 89.2001 160.668C88.889 160.842 88.6346 161.096 88.4368 161.431C88.2356 161.766 88.1486 162.184 88.176 162.684Z" fill="#3EC5FF"/>
<path d="M83.8361 159.465L83.0888 170.13L81.8599 170.044L82.1357 166.107L82.0316 166.1C81.9316 166.232 81.7942 166.4 81.6194 166.604C81.4409 166.812 81.1947 166.99 80.8808 167.139C80.5631 167.291 80.1439 167.349 79.6232 167.312C78.9497 167.265 78.3678 167.055 77.8776 166.682C77.3874 166.31 77.0199 165.804 76.775 165.166C76.5302 164.528 76.4372 163.789 76.4961 162.949C76.5554 162.102 76.7509 161.377 77.0826 160.776C77.4141 160.178 77.8469 159.727 78.381 159.423C78.9149 159.122 79.5152 158.995 80.1817 159.041C80.6955 159.077 81.1009 159.191 81.398 159.383C81.6948 159.578 81.9189 159.791 82.0702 160.022C82.2213 160.255 82.3368 160.448 82.4169 160.601L82.5627 160.611L82.6488 159.382L83.8361 159.465ZM82.3477 163.38C82.3901 162.776 82.3389 162.236 82.1942 161.762C82.0492 161.292 81.8158 160.914 81.4938 160.63C81.1716 160.349 80.764 160.192 80.271 160.157C79.7572 160.121 79.319 160.226 78.9563 160.473C78.5899 160.723 78.3038 161.073 78.0979 161.522C77.8882 161.975 77.7634 162.486 77.7236 163.056C77.6842 163.618 77.7354 164.131 77.8774 164.594C78.0156 165.061 78.2491 165.439 78.5778 165.727C78.9027 166.018 79.3256 166.182 79.8463 166.219C80.3462 166.254 80.7752 166.156 81.1331 165.927C81.4909 165.701 81.7723 165.368 81.9775 164.929C82.1825 164.493 82.3059 163.977 82.3477 163.38Z" fill="#3EC5FF"/>
<path d="M70.4518 157.922L67.6116 168.229L66.3635 167.885L67.6283 163.295L62.1327 161.78L60.8679 166.37L59.6198 166.026L62.46 155.72L63.7081 156.063L62.4378 160.673L67.9334 162.188L69.2037 157.578L70.4518 157.922Z" fill="#8FA6FF"/>
<path d="M56.468 163.685L56.0065 164.736L48.6642 161.515L49.1256 160.463L52.2041 161.814L56.0386 153.076L57.224 153.596L53.3896 162.334L56.468 163.685Z" fill="#8FA6FF"/>
<path d="M45.013 159.671L43.7159 158.832L45.4885 149.408L45.3834 149.34L37.5109 154.815L36.2138 153.975L42.0235 145.001L43.0402 145.659L38.6261 152.477L38.7138 152.534L45.9324 147.531L46.914 148.166L45.3045 156.8L45.3921 156.857L49.8061 150.039L50.8228 150.697L45.013 159.671Z" fill="#8FA6FF"/>
<path d="M39.6768 142.998L32.578 150.992L31.61 150.132L37.9462 142.997L34.2303 139.697L34.9929 138.838L39.6768 142.998Z" fill="#8FA6FF"/>
<path d="M19.4342 131.734L20.221 132.762C19.9718 133.049 19.7934 133.354 19.6859 133.678C19.5762 133.998 19.5279 134.324 19.5409 134.656C19.549 134.988 19.6137 135.313 19.7352 135.632C19.8566 135.951 20.0252 136.251 20.2409 136.533C20.6343 137.047 21.1206 137.413 21.6997 137.632C22.2767 137.848 22.9123 137.885 23.6062 137.744C24.2981 137.6 25.0116 137.247 25.7468 136.684C26.4819 136.122 27.0093 135.525 27.3289 134.895C27.6464 134.262 27.7765 133.639 27.719 133.025C27.6594 132.409 27.4329 131.844 27.0395 131.33C26.8238 131.048 26.5779 130.807 26.3017 130.606C26.0255 130.406 25.7299 130.257 25.4151 130.161C25.0953 130.064 24.7664 130.026 24.4284 130.048C24.0854 130.07 23.7442 130.162 23.4047 130.326L22.618 129.297C23.1111 129.043 23.6072 128.887 24.1064 128.829C24.6056 128.771 25.0918 128.802 25.5649 128.922C26.0352 129.044 26.4774 129.247 26.8916 129.531C27.3036 129.811 27.6735 130.166 28.0013 130.594C28.5554 131.318 28.8714 132.098 28.9491 132.932C29.0268 133.767 28.8632 134.595 28.4585 135.418C28.0537 136.24 27.4036 136.994 26.5082 137.679C25.6127 138.364 24.7152 138.795 23.8155 138.971C22.9158 139.147 22.0734 139.088 21.2881 138.795C20.5029 138.502 19.8333 137.993 19.2791 137.269C18.9513 136.841 18.7058 136.391 18.5425 135.92C18.3771 135.446 18.2983 134.965 18.3061 134.477C18.3111 133.991 18.4067 133.515 18.5929 133.048C18.7763 132.584 19.0567 132.145 19.4342 131.734Z" fill="#BE88FF"/>
<path d="M14.17 124.056C13.7393 124.369 13.5055 124.792 13.4685 125.323C13.4316 125.855 13.5715 126.403 13.8883 126.967C14.1199 127.38 14.3893 127.704 14.6965 127.938C15.0021 128.17 15.3202 128.307 15.651 128.348C15.98 128.387 16.2933 128.323 16.5907 128.156C16.8396 128.017 17.0203 127.837 17.133 127.619C17.2409 127.398 17.3012 127.161 17.314 126.906C17.3238 126.654 17.3087 126.403 17.2687 126.154C17.2258 125.906 17.1785 125.684 17.127 125.485L16.8506 124.395C16.7781 124.117 16.7145 123.797 16.6599 123.437C16.6036 123.073 16.5959 122.7 16.6369 122.318C16.6731 121.935 16.7912 121.569 16.9912 121.221C17.1912 120.874 17.5097 120.577 17.9467 120.332C18.4506 120.049 18.9799 119.926 19.5347 119.962C20.0879 119.995 20.6257 120.196 21.1481 120.565C21.6689 120.931 22.1302 121.472 22.5321 122.189C22.9068 122.856 23.1235 123.495 23.1822 124.105C23.2392 124.711 23.1533 125.262 22.9245 125.758C22.694 126.25 22.3341 126.657 21.8447 126.98L21.1907 125.815C21.5257 125.587 21.7507 125.305 21.8655 124.969C21.9756 124.632 21.9974 124.272 21.9309 123.891C21.8597 123.508 21.7201 123.131 21.5124 122.761C21.2706 122.33 20.9836 121.982 20.6516 121.718C20.3165 121.455 19.9668 121.294 19.6025 121.235C19.2352 121.177 18.8815 121.244 18.5416 121.435C18.2321 121.609 18.0287 121.836 17.9315 122.118C17.8344 122.4 17.8043 122.717 17.8412 123.067C17.8782 123.417 17.9432 123.782 18.036 124.161L18.352 125.492C18.5513 126.338 18.5759 127.082 18.4259 127.725C18.2758 128.368 17.8867 128.866 17.2584 129.218C16.7364 129.511 16.202 129.625 15.6551 129.561C15.1035 129.496 14.5855 129.284 14.1009 128.925C13.6116 128.565 13.2001 128.088 12.8663 127.493C12.5291 126.892 12.3371 126.297 12.2903 125.709C12.2405 125.122 12.3241 124.589 12.5411 124.108C12.7564 123.624 13.095 123.242 13.5569 122.963L14.17 124.056Z" fill="#BE88FF"/>
<path d="M9.84186 114.216C9.37324 114.469 9.08519 114.857 8.9777 115.379C8.8702 115.901 8.93579 116.462 9.17445 117.064C9.34895 117.504 9.57281 117.861 9.84603 118.134C10.118 118.404 10.415 118.582 10.7373 118.668C11.0582 118.75 11.3772 118.729 11.6942 118.603C11.9595 118.498 12.1625 118.344 12.3033 118.142C12.4396 117.938 12.5311 117.711 12.5777 117.461C12.6211 117.211 12.6396 116.961 12.6332 116.709C12.6236 116.458 12.6065 116.231 12.5819 116.027L12.4533 114.91C12.4185 114.624 12.3982 114.299 12.3921 113.935C12.3848 113.567 12.4269 113.196 12.5184 112.823C12.6055 112.448 12.7713 112.101 13.0158 111.783C13.2604 111.465 13.6156 111.214 14.0814 111.029C14.6184 110.816 15.1594 110.765 15.7046 110.874C16.2484 110.98 16.7546 111.251 17.2231 111.687C17.6904 112.119 18.0755 112.717 18.3783 113.481C18.6606 114.192 18.7902 114.854 18.7671 115.466C18.7427 116.075 18.5841 116.609 18.2913 117.07C17.9972 117.527 17.5862 117.883 17.0581 118.138L16.5654 116.895C16.9278 116.714 17.1883 116.465 17.3469 116.147C17.501 115.828 17.5705 115.475 17.5555 115.088C17.5359 114.698 17.4479 114.307 17.2913 113.912C17.1091 113.453 16.8711 113.07 16.5773 112.763C16.2803 112.458 15.9552 112.252 15.602 112.145C15.2456 112.039 14.8862 112.058 14.5239 112.202C14.1939 112.333 13.962 112.531 13.8281 112.798C13.6942 113.064 13.6222 113.374 13.6122 113.726C13.6021 114.078 13.6178 114.448 13.6594 114.836L13.795 116.197C13.8798 117.062 13.8049 117.803 13.5705 118.42C13.336 119.037 12.884 119.479 12.2144 119.744C11.658 119.965 11.1131 120.007 10.5797 119.871C10.0417 119.732 9.55657 119.453 9.12416 119.033C8.68723 118.611 8.34301 118.083 8.09152 117.449C7.83746 116.808 7.72647 116.193 7.75855 115.604C7.7874 115.016 7.94141 114.498 8.22059 114.05C8.49848 113.6 8.88493 113.267 9.37993 113.051L9.84186 114.216Z" fill="#BE88FF"/>
<path d="M3.71005 101.553L3.46284 100.283L10.9645 98.8233C11.6341 98.6931 12.2268 98.7054 12.7426 98.8603C13.2585 99.0152 13.6812 99.2929 14.0108 99.6932C14.3404 100.094 14.5644 100.598 14.6826 101.206C14.7943 101.78 14.7894 102.311 14.6681 102.799C14.5434 103.287 14.3112 103.698 13.9716 104.03C13.632 104.362 13.1941 104.58 12.6577 104.684L12.4145 103.434C12.7117 103.376 12.9571 103.252 13.1505 103.062C13.3399 102.869 13.4708 102.631 13.5433 102.347C13.6158 102.064 13.6198 101.756 13.5553 101.425C13.4842 101.06 13.3469 100.764 13.1433 100.537C12.9398 100.311 12.6764 100.16 12.3533 100.085C12.0261 100.007 11.6456 100.01 11.2118 100.094L3.71005 101.553Z" fill="#FF97F8"/>
<path d="M13.5386 92.9079C13.5777 93.4145 13.5177 93.8816 13.3588 94.3093C13.1963 94.7372 12.9423 95.0866 12.5967 95.3576C12.2477 95.6289 11.8129 95.7846 11.2925 95.8248C10.8344 95.8601 10.4562 95.7986 10.1578 95.6401C9.85584 95.4819 9.6117 95.2581 9.42532 94.9688C9.23894 94.6796 9.09179 94.3558 8.98387 93.9977C8.87221 93.6363 8.77776 93.2718 8.70053 92.9043C8.60059 92.4234 8.52335 92.0332 8.46883 91.7337C8.41057 91.431 8.33618 91.2134 8.24566 91.0808C8.15487 90.9447 8.01059 90.8842 7.81281 90.8995L7.77118 90.9027C7.25765 90.9423 6.86947 91.1137 6.60663 91.4167C6.34353 91.7162 6.23381 92.1488 6.27745 92.7144C6.32271 93.3008 6.48657 93.7506 6.76904 94.0639C7.05152 94.3772 7.34371 94.5902 7.64561 94.703L7.31921 95.901C6.81737 95.7303 6.41774 95.4819 6.12032 95.1558C5.81916 94.8266 5.59887 94.4596 5.45944 94.055C5.31627 93.6472 5.22915 93.242 5.19809 92.8395C5.17828 92.5828 5.18674 92.2854 5.22349 91.9475C5.2565 91.6064 5.35464 91.2725 5.51791 90.9457C5.68091 90.6155 5.94348 90.3317 6.30563 90.0943C6.66777 89.857 7.16632 89.7138 7.8013 89.6648L13.0684 89.2583L13.1632 90.4866L12.0807 90.5701L12.0855 90.6326C12.2654 90.7025 12.4617 90.8269 12.6745 91.006C12.8873 91.185 13.0755 91.4305 13.2392 91.7425C13.4029 92.0545 13.5027 92.443 13.5386 92.9079ZM12.4207 92.8057C12.3832 92.3199 12.2562 91.9179 12.0397 91.5995C11.8229 91.2776 11.557 91.0434 11.242 90.8966C10.9267 90.7464 10.6025 90.6842 10.2694 90.7099L9.14522 90.7967C9.21169 90.8439 9.27778 90.954 9.34348 91.1269C9.40545 91.2967 9.46435 91.4946 9.52019 91.7206C9.5723 91.9435 9.62053 92.1614 9.66489 92.3744C9.70551 92.5842 9.73959 92.7543 9.76711 92.8848C9.83339 93.2008 9.92408 93.494 10.0392 93.7644C10.1506 94.0315 10.3047 94.243 10.5018 94.3989C10.695 94.5515 10.9478 94.6157 11.2601 94.5916C11.6869 94.5587 11.9974 94.3759 12.1916 94.0433C12.3821 93.7075 12.4585 93.2949 12.4207 92.8057Z" fill="#FF97F8"/>
<path d="M5.26472 80.0799L13.1668 83.3417L13.1201 84.5937L4.99703 87.2579L5.04684 85.9224L11.5144 83.9487L11.5175 83.8653L5.21492 81.4153L5.26472 80.0799Z" fill="#FF97F8"/>
<path d="M14.0309 76.2298C13.9535 76.7319 13.7888 77.1731 13.5365 77.5533C13.2809 77.9329 12.9539 78.2153 12.5557 78.4004C12.154 78.585 11.6952 78.6376 11.1793 78.5581C10.7252 78.4882 10.371 78.3421 10.1165 78.1198C9.85856 77.897 9.67181 77.6235 9.55625 77.2993C9.44068 76.9752 9.37116 76.6264 9.34768 76.2531C9.32129 75.8758 9.31237 75.4994 9.3209 75.124C9.33316 74.6329 9.34686 74.2354 9.362 73.9314C9.37423 73.6234 9.35139 73.3945 9.29347 73.2447C9.23608 73.0915 9.10936 72.9998 8.91331 72.9696L8.87203 72.9633C8.36298 72.8849 7.94597 72.9632 7.62102 73.1984C7.29659 73.4301 7.09119 73.8263 7.00483 74.3869C6.9153 74.9682 6.97236 75.4436 7.17602 75.813C7.37969 76.1824 7.61565 76.4564 7.88391 76.635L7.29314 77.7271C6.8434 77.4466 6.51087 77.1137 6.29557 76.7284C6.07736 76.3392 5.94646 75.9317 5.90288 75.5059C5.85639 75.0762 5.86388 74.6619 5.92534 74.2629C5.96454 74.0084 6.04053 73.7208 6.15331 73.4001C6.26317 73.0755 6.43481 72.7727 6.66823 72.4918C6.90218 72.2074 7.22251 71.9909 7.62921 71.8422C8.03591 71.6936 8.55397 71.6678 9.18341 71.7647L14.4046 72.569L14.2171 73.7866L13.144 73.6213L13.1344 73.6832C13.2937 73.7922 13.4565 73.9582 13.6229 74.181C13.7893 74.4038 13.9166 74.6857 14.0049 75.0268C14.0932 75.3679 14.1019 75.7689 14.0309 76.2298ZM12.9657 75.8756C13.0399 75.394 13.0078 74.9736 12.8695 74.6142C12.7317 74.2515 12.5262 73.9628 12.2529 73.7481C11.9802 73.5301 11.6787 73.3956 11.3485 73.3447L10.2341 73.1731C10.2881 73.2342 10.3273 73.3564 10.3519 73.5398C10.3736 73.7192 10.3858 73.9253 10.3887 74.1582C10.3887 74.387 10.386 74.6102 10.3806 74.8277C10.3724 75.0412 10.3668 75.2147 10.3639 75.348C10.3564 75.6708 10.3779 75.9769 10.4284 76.2664C10.476 76.5519 10.5779 76.793 10.7343 76.9896C10.8877 77.1822 11.1192 77.3024 11.4287 77.3501C11.8518 77.4152 12.1958 77.308 12.4607 77.0284C12.7227 76.7448 12.891 76.3605 12.9657 75.8756Z" fill="#FF97F8"/>
<path d="M8.83633 62.1812C8.31049 62.0961 7.84585 62.2276 7.44242 62.5756C7.03898 62.9237 6.74837 63.4089 6.57059 64.0313C6.44059 64.4864 6.40046 64.9056 6.45021 65.289C6.5009 65.669 6.62784 65.9912 6.83102 66.2556C7.03516 66.5166 7.30119 66.6939 7.62913 66.7876C7.90352 66.8659 8.15807 66.8681 8.39278 66.794C8.6251 66.7156 8.83614 66.5912 9.02591 66.4211C9.21233 66.2499 9.37987 66.0625 9.52852 65.8589C9.67383 65.6543 9.79882 65.4638 9.9035 65.2874L10.4828 64.3236C10.6295 64.076 10.8117 63.8059 11.0291 63.5133C11.2476 63.2174 11.5069 62.9494 11.8071 62.7094C12.1049 62.4652 12.4476 62.2916 12.8353 62.1888C13.223 62.086 13.6577 62.1034 14.1396 62.2411C14.6951 62.3997 15.1554 62.6887 15.5207 63.1079C15.8869 63.5237 16.1228 64.0472 16.2285 64.6782C16.3352 65.3058 16.2757 66.0145 16.0501 66.8042C15.8398 67.5404 15.5389 68.1439 15.1475 68.6148C14.757 69.0824 14.3052 69.4094 13.7923 69.5958C13.2804 69.7789 12.7376 69.8103 12.1639 69.6899L12.531 68.4049C12.9287 68.4823 13.2872 68.4436 13.6065 68.2887C13.9234 68.1295 14.194 67.8919 14.4182 67.5759C14.64 67.2556 14.8092 66.8913 14.9258 66.4831C15.0615 66.0079 15.1064 65.5592 15.0605 65.1371C15.0112 64.7141 14.8793 64.3525 14.6646 64.0523C14.4466 63.7511 14.1502 63.547 13.7754 63.44C13.4341 63.3425 13.1291 63.3585 12.8605 63.4881C12.5918 63.6177 12.3461 63.8189 12.1234 64.0919C11.9006 64.3649 11.6875 64.6677 11.4838 65.0004L10.7611 66.1621C10.3008 66.8992 9.78963 67.4409 9.22749 67.787C8.66535 68.1331 8.03794 68.2073 7.34526 68.0094C6.7697 67.845 6.3122 67.546 5.97277 67.1125C5.63095 66.6746 5.41676 66.1574 5.3302 65.5608C5.24124 64.96 5.29044 64.3316 5.47779 63.6757C5.66704 63.0132 5.95406 62.4582 6.33885 62.0107C6.72029 61.5623 7.15814 61.2458 7.65241 61.0612C8.14764 60.8733 8.65698 60.8451 9.18043 60.9765L8.83633 62.1812Z" fill="#FF97F8"/>
<path d="M19.1543 58.0316C18.8585 58.7227 18.4406 59.2479 17.9006 59.6073C17.3607 59.9667 16.7468 60.1582 16.0591 60.1818C15.3714 60.2054 14.6596 60.0597 13.9238 59.7447C13.1751 59.4242 12.5733 59.0038 12.1184 58.4836C11.6617 57.9587 11.3779 57.3792 11.2671 56.7449C11.1544 56.1062 11.2405 55.454 11.5254 54.7886C11.7472 54.2703 12.0432 53.8443 12.4131 53.5106C12.7831 53.1768 13.1977 52.9511 13.6569 52.8335C14.1161 52.7159 14.5898 52.7237 15.0779 52.8569L14.5931 53.9894C14.2202 53.932 13.8404 53.9966 13.4539 54.1832C13.0656 54.3652 12.7646 54.7058 12.551 55.2049C12.362 55.6464 12.3114 56.0828 12.3993 56.5142C12.4854 56.9409 12.6967 57.3361 13.0332 57.6997C13.3678 58.0587 13.8135 58.3574 14.3702 58.5957C14.9397 58.8395 15.4739 58.9622 15.9729 58.9638C16.4733 58.9622 16.9108 58.8466 17.2854 58.6171C17.6613 58.3843 17.9452 58.044 18.1369 57.5961C18.2629 57.3018 18.3261 57.0127 18.3264 56.7289C18.3268 56.4452 18.2666 56.179 18.1458 55.9305C18.0251 55.6819 17.8454 55.465 17.6068 55.2795L18.0916 54.147C18.4993 54.3972 18.8235 54.7234 19.064 55.1254C19.3027 55.5228 19.4361 55.9718 19.4642 56.4721C19.4904 56.9679 19.3871 57.4877 19.1543 58.0316Z" fill="#FF97F8"/>
<path d="M21.2778 53.1317L14.2585 49.2561L14.8338 48.2142L15.894 48.7996L15.9344 48.7264C15.6577 48.4067 15.5038 48.0196 15.4725 47.565C15.4412 47.1105 15.5416 46.673 15.7738 46.2525C15.8175 46.1733 15.8737 46.0752 15.9423 45.958C16.011 45.8409 16.0652 45.7535 16.1049 45.696L17.2017 46.3015C17.1724 46.3331 17.1124 46.4093 17.0218 46.5302C16.9298 46.6464 16.8443 46.776 16.7652 46.9192C16.5768 47.2605 16.4802 47.6046 16.4754 47.9518C16.4692 48.2942 16.5481 48.6121 16.7121 48.9054C16.8748 49.194 17.1145 49.4257 17.4314 49.6007L21.8733 52.0532L21.2778 53.1317Z" fill="#FF97F8"/>
<path d="M24.1731 48.1183L17.4207 43.7944L18.0851 42.7569L24.8375 47.0808L24.1731 48.1183ZM16.6331 42.5462C16.5036 42.7484 16.3231 42.8787 16.0915 42.937C15.8618 42.9924 15.6503 42.9582 15.4568 42.8343C15.2634 42.7104 15.1438 42.5326 15.098 42.3008C15.0541 42.066 15.0969 41.8476 15.2264 41.6453C15.3559 41.4431 15.5355 41.3143 15.7652 41.2589C15.9968 41.2006 16.2093 41.2334 16.4027 41.3572C16.5961 41.4811 16.7148 41.6604 16.7587 41.8951C16.8045 42.1269 16.7626 42.3439 16.6331 42.5462Z" fill="#FF97F8"/>
<path d="M28.5502 46.8126L19.8264 40.0712L20.5541 39.1295L21.562 39.9083L21.6514 39.7926C21.5966 39.6359 21.5327 39.4283 21.4599 39.1697C21.3864 38.9062 21.3748 38.6025 21.425 38.2587C21.4746 37.9099 21.6589 37.529 21.9781 37.116C22.391 36.5818 22.8884 36.2141 23.4704 36.0129C24.0525 35.8118 24.6769 35.7864 25.3437 35.9366C26.0105 36.0868 26.6771 36.4194 27.3435 36.9343C28.0154 37.4536 28.5095 38.0179 28.8258 38.6274C29.1393 39.2347 29.2746 39.845 29.2317 40.4584C29.186 41.0696 28.9588 41.6396 28.5503 42.1683C28.2353 42.5758 27.9157 42.85 27.5914 42.9908C27.2643 43.1295 26.9629 43.1979 26.6873 43.196C26.4089 43.192 26.1843 43.1811 26.0133 43.1633L25.9494 43.2459L29.3035 45.8378L28.5502 46.8126ZM23.7392 41.5643C24.2183 41.9346 24.6953 42.191 25.1701 42.3336C25.6421 42.4741 26.0856 42.4892 26.5007 42.3789C26.913 42.2665 27.2703 42.0148 27.5724 41.6238C27.8874 41.2162 28.0428 40.7931 28.0387 40.3545C28.0339 39.9111 27.9016 39.479 27.6418 39.0583C27.3813 38.6327 27.0253 38.2454 26.5736 37.8964C26.1275 37.5517 25.6723 37.3098 25.2079 37.1709C24.7429 37.027 24.2994 37.012 23.8773 37.1256C23.4546 37.2344 23.0836 37.4953 22.7644 37.9083C22.458 38.3049 22.301 38.7157 22.2935 39.1409C22.2832 39.564 22.4039 39.9827 22.6555 40.397C22.9043 40.8092 23.2656 41.1983 23.7392 41.5643Z" fill="#FF97F8"/>
<path d="M28.498 29.8206L29.2585 30.5359L26.4116 33.5627L25.6511 32.8474L28.498 29.8206ZM25.0815 30.6491L25.9256 29.7517L31.4924 34.9877C31.7459 35.2261 31.9706 35.3682 32.1665 35.4139C32.3622 35.4547 32.5365 35.4371 32.6893 35.361C32.8419 35.28 32.9802 35.1736 33.1042 35.0418C33.1972 34.9429 33.2684 34.857 33.3179 34.7841C33.3648 34.7088 33.4023 34.6486 33.4305 34.6034L34.4083 35.1791C34.3739 35.2614 34.3168 35.3678 34.2371 35.4982C34.1599 35.6311 34.0427 35.7812 33.8853 35.9485C33.6469 36.202 33.3587 36.3991 33.0208 36.54C32.6853 36.6783 32.3309 36.7223 31.9576 36.6722C31.5867 36.6196 31.2314 36.4335 30.8917 36.114L25.0815 30.6491Z" fill="#FF97F8"/>
<path d="M33.3574 25.3479L34.3002 24.5549L39.8382 31.1382C40.1563 31.5163 40.3666 31.8988 40.4691 32.2855C40.5742 32.67 40.5602 33.048 40.4269 33.4193C40.2963 33.7884 40.0339 34.1387 39.6397 34.4703C39.6078 34.4972 39.5758 34.5241 39.5439 34.551C39.5119 34.5778 39.4799 34.6047 39.448 34.6316L38.7087 33.7528C38.7406 33.7259 38.7699 33.7012 38.7966 33.6788C38.8232 33.6564 38.8525 33.6318 38.8845 33.6049C39.1721 33.363 39.3108 33.1008 39.3006 32.8183C39.2926 32.5385 39.1575 32.2428 38.8954 31.9312L33.3574 25.3479ZM32.9606 23.9355C32.7768 24.0901 32.5657 24.1608 32.3272 24.1476C32.0915 24.1322 31.8996 24.0366 31.7518 23.8609C31.6039 23.6851 31.5426 23.4798 31.5678 23.2448C31.5957 23.0076 31.7015 22.8118 31.8852 22.6572C32.069 22.5026 32.2788 22.433 32.5145 22.4484C32.753 22.4616 32.9461 22.556 33.094 22.7318C33.2419 22.9075 33.3019 23.114 33.274 23.3512C33.2488 23.5861 33.1443 23.7809 32.9606 23.9355Z" fill="#FF9BD7"/>
<path d="M42.8359 23.966L44.0115 23.1698L45.8752 23.799L46.3687 23.9692L49.1613 24.9275L47.9857 25.7237L46.1393 25.0828L45.6748 24.9182L42.8359 23.966ZM45.9648 19.4258C46.5971 20.3594 46.975 21.2804 47.0984 22.1888C47.2218 23.0971 47.1145 23.9347 46.7765 24.7017C46.4385 25.4686 45.892 26.1077 45.1371 26.619C44.3821 27.1303 43.5858 27.4006 42.7482 27.4299C41.9106 27.4592 41.093 27.248 40.2953 26.7963C39.4976 26.3446 38.7826 25.6519 38.1503 24.7183C37.518 23.7847 37.1402 22.8638 37.0168 21.9554C36.8933 21.0471 37.0006 20.2094 37.3387 19.4425C37.6767 18.6756 38.2232 18.0364 38.9781 17.5251C39.733 17.0138 40.5293 16.7436 41.3669 16.7143C42.2045 16.685 43.0222 16.8962 43.8199 17.3479C44.6176 17.7996 45.3326 18.4922 45.9648 19.4258ZM44.9275 20.1284C44.4084 19.3619 43.8421 18.8019 43.2285 18.4482C42.6178 18.0927 42.0032 17.9268 41.3846 17.9506C40.769 17.9725 40.1932 18.1649 39.6572 18.5279C39.1213 18.8909 38.7275 19.3551 38.4758 19.9207C38.227 20.4842 38.153 21.1165 38.2537 21.8175C38.3572 22.5166 38.6686 23.2493 39.1877 24.0158C39.7068 24.7823 40.2717 25.3433 40.8823 25.6989C41.4959 26.0525 42.1105 26.2184 42.7262 26.1965C43.3447 26.1727 43.922 25.9793 44.4579 25.6163C44.9939 25.2533 45.3863 24.79 45.635 24.2264C45.8867 23.6609 45.9607 23.0286 45.8572 22.3296C45.7565 21.6286 45.4466 20.8949 44.9275 20.1284Z" fill="#FF9BD7"/>
<path d="M54.1037 17.623L52.0216 13.3649L53.1283 12.8237L56.6505 20.0269L55.5438 20.5681L54.9476 19.3488L54.8725 19.3855C54.8826 19.8338 54.7721 20.2733 54.541 20.7039C54.3084 21.1314 53.9202 21.4782 53.3762 21.7442C52.926 21.9643 52.4776 22.0615 52.0312 22.0358C51.5832 22.0069 51.1613 21.8413 50.7655 21.539C50.3682 21.2335 50.0198 20.7744 49.7202 20.1616L47.4821 15.5846L48.5888 15.0434L50.7902 19.5454C51.047 20.0706 51.3988 20.4177 51.8456 20.5867C52.2954 20.7541 52.7502 20.7254 53.2097 20.5007C53.4849 20.3662 53.7303 20.159 53.946 19.8792C54.1648 19.5979 54.3001 19.2644 54.3517 18.8789C54.4065 18.4918 54.3238 18.0732 54.1037 17.623Z" fill="#FF9BD7"/>
<path d="M62.3006 18.0768C61.5704 18.329 60.8848 18.3854 60.2438 18.2459C59.6051 18.102 59.042 17.7883 58.5548 17.3049C58.0697 16.8171 57.6931 16.185 57.425 15.4087C57.1569 14.6324 57.062 13.8993 57.1405 13.2095C57.221 12.5153 57.4589 11.914 57.854 11.4057C58.2513 10.8929 58.7921 10.5184 59.4763 10.2821C59.871 10.1458 60.2835 10.077 60.7138 10.0757C61.1442 10.0743 61.5683 10.1672 61.9864 10.3542C62.4033 10.5379 62.7889 10.8391 63.1434 11.2579C63.4979 11.6767 63.7973 12.2398 64.0415 12.947L64.2119 13.4404L58.3698 15.4579L58.0222 14.4514L62.6801 12.8428C62.5324 12.4152 62.3151 12.0631 62.0282 11.7867C61.7446 11.5091 61.413 11.3272 61.0335 11.241C60.6572 11.1537 60.2586 11.1828 59.8375 11.3282C59.3737 11.4884 59.0121 11.7421 58.7528 12.0894C58.4957 12.4322 58.3397 12.8174 58.2849 13.2451C58.2301 13.6727 58.2748 14.0954 58.4191 14.5131L58.6508 15.1842C58.8485 15.7565 59.1147 16.2077 59.4495 16.5375C59.7865 16.863 60.1684 17.068 60.5953 17.1525C61.0209 17.2338 61.469 17.1932 61.9394 17.0307C62.2453 16.9251 62.5069 16.7869 62.724 16.6162C62.9434 16.441 63.1134 16.235 63.2341 15.9982C63.3537 15.7581 63.4174 15.4894 63.4252 15.1922L64.6592 15.1195C64.6726 15.542 64.5894 15.9462 64.4098 16.3322C64.229 16.715 63.9609 17.058 63.6054 17.3611C63.2487 17.661 62.8138 17.8996 62.3006 18.0768Z" fill="#FF9BD7"/>
<path d="M67.4149 16.3419L65.5834 8.53569L66.7422 8.26384L67.0188 9.4429L67.1001 9.42383C67.1518 9.0042 67.3358 8.63038 67.652 8.30239C67.9683 7.97439 68.3602 7.75555 68.8277 7.64585C68.9158 7.62519 69.0263 7.60105 69.1593 7.57343C69.2922 7.54582 69.3933 7.52745 69.4627 7.51833L69.7489 8.73805C69.7058 8.73743 69.6091 8.74404 69.4586 8.75789C69.3107 8.76756 69.1572 8.79108 68.9979 8.82844C68.6185 8.91746 68.2983 9.07657 68.0375 9.30577C67.7793 9.53078 67.5964 9.80246 67.4888 10.1208C67.3838 10.435 67.3726 10.7683 67.4553 11.1206L68.6143 16.0605L67.4149 16.3419Z" fill="#FF9BD7"/>
<path d="M74.3616 17.9249C74.1546 17.9523 73.9678 17.9595 73.8011 17.9465C73.6348 17.9369 73.5186 17.9207 73.4524 17.8979L73.6203 16.7804C73.9271 16.817 74.1929 16.8098 74.4179 16.759C74.6428 16.7081 74.8312 16.5796 74.9829 16.3735C75.1385 16.1703 75.2638 15.8571 75.3587 15.4338L75.5042 14.7826L71.5066 7.18174L72.8314 7.00629L75.8644 13.0499L75.9472 13.0389L77.3026 6.41414L78.6274 6.23869L76.4595 15.7935C76.3621 16.2242 76.219 16.5889 76.0304 16.8877C75.8423 17.1899 75.6085 17.4263 75.3292 17.5967C75.0533 17.7666 74.7308 17.876 74.3616 17.9249Z" fill="#FF9BD7"/>
</svg>
