<svg width="90" height="31" viewBox="0 0 90 31" fill="none" xmlns="http://www.w3.org/2000/svg">
<rect width="90" height="31" rx="5" fill="#B5FFFB"/>
<path d="M34.16 21.44V23.26H17.1V21.44H24.58V18.22H18.24V12.06H31.08V9.38H18.24V7.62H33.04V13.76H20.22V16.46H33.3V18.22H26.6V21.44H34.16ZM50.1783 9.46H37.3783V7.6H52.2583V19.44H50.1783V9.46ZM36.3383 21.4H53.3983V23.26H36.3383V21.4ZM69.5366 7H71.5166V19.68H69.5366V7ZM61.1566 17.1C60.0632 17.1 59.1032 16.8867 58.2766 16.46C57.4632 16.0333 56.8366 15.4467 56.3966 14.7C55.9566 13.94 55.7366 13.0867 55.7366 12.14C55.7366 11.1933 55.9566 10.3467 56.3966 9.6C56.8366 8.84 57.4632 8.24667 58.2766 7.82C59.1032 7.39333 60.0632 7.18 61.1566 7.18C62.2499 7.18 63.2032 7.39333 64.0166 7.82C64.8299 8.24667 65.4566 8.83333 65.8966 9.58C66.3366 10.3267 66.5566 11.18 66.5566 12.14C66.5566 13.1 66.3366 13.9533 65.8966 14.7C65.4566 15.4467 64.8299 16.0333 64.0166 16.46C63.2032 16.8867 62.2499 17.1 61.1566 17.1ZM61.1566 15.42C62.1832 15.42 63.0099 15.1267 63.6366 14.54C64.2632 13.94 64.5766 13.14 64.5766 12.14C64.5766 11.14 64.2566 10.34 63.6166 9.74C62.9899 9.14 62.1699 8.84 61.1566 8.84C60.1299 8.84 59.2966 9.14 58.6566 9.74C58.0299 10.34 57.7166 11.14 57.7166 12.14C57.7166 13.14 58.0299 13.94 58.6566 14.54C59.2966 15.1267 60.1299 15.42 61.1566 15.42ZM57.2366 18.28H59.2566V22.06H71.9766V23.86H57.2366V18.28Z" fill="#115C58"/>
</svg>
