<svg width="109" height="31" viewBox="0 0 109 31" fill="none" xmlns="http://www.w3.org/2000/svg">
<rect width="109" height="31" rx="5" fill="#B5FFFB"/>
<path d="M31.06 7H33.04V24.08H31.06V7ZM17.9 21.14C19.4333 21.14 20.76 20.76 21.88 20C23.0133 19.2267 23.8733 18.14 24.46 16.74C25.06 15.3267 25.36 13.6733 25.36 11.78V9.44H17.9V7.62H27.38V11.74C27.38 14.0067 26.9933 15.9933 26.22 17.7C25.46 19.3933 24.36 20.7067 22.92 21.64C21.4933 22.56 19.82 23.02 17.9 23.02V21.14ZM54.1983 15.82H51.7983V24.08H49.8183V7H51.7983V13.92H54.1983V15.82ZM43.9183 21.24C44.7316 21.24 45.5383 21.1667 46.3383 21.02C47.1516 20.8733 47.8183 20.68 48.3383 20.44V22.24C47.8316 22.4933 47.1649 22.6933 46.3383 22.84C45.5249 22.9867 44.6983 23.06 43.8583 23.06H37.1383V7.62H46.9983V9.44H39.1183V14.3H46.6983V16.12H39.1183V21.24H43.9183ZM71.6566 7V24.08H69.6566V15.86H65.9566V23.06H56.4566V7.5H58.4166V13.38H63.9966V7.5H65.9566V14H69.6566V7H71.6566ZM63.9966 21.24V15.2H58.4166V21.24H63.9966ZM90.8948 15.12H76.0548V7.2H90.7348V8.74H78.0348V10.42H90.4548V11.9H78.0348V13.58H90.8948V15.12ZM91.8748 16.7V18.3H74.8148V16.7H91.8748ZM78.0148 22.24H90.9948V23.88H75.9948V19.64H78.0148V22.24Z" fill="#115C58"/>
</svg>
